<svg id="logo_horizontal.f9f5c014c9898beec723" xmlns="http://www.w3.org/2000/svg" width="435.37" height="89.493" viewBox="0 0 435.37 89.493">
  <path id="Tracciato_1" data-name="Tracciato 1" d="M137.8,38.067V.1H143V16.152L156.2.1h6.743L148.134,18.13l14.879,19.863h-6.6L144.69,22.308,143,24.361V37.993h-5.2Z" transform="translate(-36.8 -0.027)" fill="#fff"/>
  <path id="Tracciato_2" data-name="Tracciato 2" d="M199.2,38.067,191.94,21.722H184.9V38.067h-5.2V.1l19.276.073c3.445.733,5.424,2.712,5.79,5.937l.147,1.393h-.073v6.816h.073l-.147,1.393c-.366,3.225-2.345,5.2-5.79,5.937l-1.319.073,7.256,16.345Zm-1.686-21.622.806-.147a2.186,2.186,0,0,0,1.246-1.173l.147-.806V7.5l-.147-.806a2.289,2.289,0,0,0-1.173-1.173l-.88-.073V5.3H184.9V16.445Z" transform="translate(-47.99 -0.027)" fill="#fff"/>
  <path id="Tracciato_3" data-name="Tracciato 3" d="M246.813,38.04h-5.277V28.585H226.8V38.04h-5.2V26.826L231.641,0h5.131l10.041,26.826ZM240,23.381,234.133,7.843l-5.717,15.538Z" transform="translate(-59.179)" fill="#fff"/>
  <path id="Tracciato_4" data-name="Tracciato 4" d="M273.441,38.067V5.3H263.4V.1h25.287V5.3H278.645V38.067Z" transform="translate(-70.342 -0.027)" fill="#fff"/>
  <path id="Tracciato_5" data-name="Tracciato 5" d="M305.3,38.067V.1h25.286V5.3H310.5V16.445h14.732v5.2H310.5V32.789h20.083v5.2Z" transform="translate(-81.531 -0.027)" fill="#fff"/>
  <path id="Tracciato_6" data-name="Tracciato 6" d="M354.676,38.04l-1.466-.147a6.436,6.436,0,0,1-3.811-1.979,8.423,8.423,0,0,1-2.126-3.885l-.073-1.466.073-24.554A7.564,7.564,0,0,1,349.4,2.126,6.436,6.436,0,0,1,353.21.147L354.676,0V.073H365.01V0l1.466.147a6.437,6.437,0,0,1,3.812,1.979,7.813,7.813,0,0,1,2.125,3.885l.073,1.466-.073,24.554a7.565,7.565,0,0,1-2.125,3.885,6.437,6.437,0,0,1-3.812,1.979l-1.466.147v-.073H354.676Zm10.335-5.277.88-.147a2.156,2.156,0,0,0,1.173-1.1l.073-.88h.073V7.476h-.073l-.073-.806A2.289,2.289,0,0,0,365.89,5.5l-.88-.147H354.676l-.88.147a2.29,2.29,0,0,0-1.173,1.173l-.073.806h-.073V30.564h.073l.073.88a1.929,1.929,0,0,0,1.173,1.1l.88.147H365.01Z" transform="translate(-92.721)" fill="#fff"/>
  <path id="Tracciato_7" data-name="Tracciato 7" d="M81.9,73.328h8.062l9.6-7.7-25.8-20.009V25.1L65.7,33.016V45.622L91.5,65.632Z" transform="translate(-17.545 -6.703)" fill="#fff" opacity="0.5"/>
  <path id="Tracciato_8" data-name="Tracciato 8" d="M34.734,88.984l.953,1.026,3.078-2.785L37.812,86.2,14.5,60.473l-1.1-1.173L10.4,62.085l1.026,1.173Z" transform="translate(-2.777 -15.836)" fill="#fff"/>
  <path id="Tracciato_9" data-name="Tracciato 9" d="M0,0V89.419H89.419V0ZM85.755,86.341H43.684L35.328,66.625H56.51l9.6-7.769L40.385,38.919V18.4l-25.8,25.36L35.328,66.625l8.356,19.716h-15.9l1.466-12.167L7.769,50.427l-4.1,4.031V3.078h82.09Z" fill="#fff"/>
  <path id="Tracciato_10" data-name="Tracciato 10" d="M138.6,108.14V70.1l19.276.073a7.565,7.565,0,0,1,3.885,2.126,6.436,6.436,0,0,1,1.979,3.811l.147,1.466h-.073v6.743h.073l-.147,1.393a6.436,6.436,0,0,1-1.979,3.811,7.289,7.289,0,0,1-3.885,2.126l-1.319.073V91.8H143.8V108.14Zm17.811-21.622.806-.147A1.591,1.591,0,0,0,158.39,85.2l.147-.806V77.649l-.147-.88a1.863,1.863,0,0,0-1.173-1.173l-.806-.073v-.073H143.8V86.591h12.607Z" transform="translate(-37.014 -18.72)" fill="#fff" opacity="0.81"/>
  <path id="Tracciato_11" data-name="Tracciato 11" d="M179.4,108.14V70.1h5.2v32.763h20.083v5.277Z" transform="translate(-47.909 -18.72)" fill="#fff" opacity="0.81"/>
  <path id="Tracciato_12" data-name="Tracciato 12" d="M245.487,108.113h-5.351V98.658H225.4v9.455h-5.2V96.826L230.315,70h5.131l10.041,26.826ZM238.6,93.454l-5.864-15.538-5.717,15.538Z" transform="translate(-58.805 -18.694)" fill="#fff" opacity="0.81"/>
  <path id="Tracciato_13" data-name="Tracciato 13" d="M273.141,108.14V75.3H263.1V70.1h25.36v5.2H278.419V108.14Z" transform="translate(-70.262 -18.72)" fill="#fff" opacity="0.81"/>
  <path id="Tracciato_14" data-name="Tracciato 14" d="M304.8,108.14V70.1h25.287v5.2H310V86.445h14.732v5.2H310V108.14Z" transform="translate(-81.398 -18.72)" fill="#fff" opacity="0.81"/>
  <path id="Tracciato_15" data-name="Tracciato 15" d="M352.376,108.113l-1.466-.147a6.437,6.437,0,0,1-3.811-1.979,7.288,7.288,0,0,1-2.125-3.885l-.073-1.466.073-24.627a7.563,7.563,0,0,1,2.125-3.885,6.437,6.437,0,0,1,3.811-1.979L352.376,70v.073h10.408V70l1.466.147a6.437,6.437,0,0,1,3.811,1.979,7.29,7.29,0,0,1,2.125,3.885l.073,1.466-.073,24.627a7.085,7.085,0,0,1-2.125,3.811,6.437,6.437,0,0,1-3.811,1.979l-1.466.147v-.073H352.449v.147Zm10.408-5.35.88-.147a2.156,2.156,0,0,0,1.173-1.1l.073-.88h.073V77.476h-.073l-.073-.733a1.862,1.862,0,0,0-1.173-1.173l-.88-.147H352.376l-.88.147a2.288,2.288,0,0,0-1.173,1.173l-.073.733h-.073v23.161h.073l.073.88a1.928,1.928,0,0,0,1.173,1.1l.88.147Z" transform="translate(-92.107 -18.694)" fill="#fff" opacity="0.81"/>
  <path id="Tracciato_16" data-name="Tracciato 16" d="M407.67,108.14,400.34,91.722H393.3V108.14h-5.2V70.1l19.276.073c3.518.733,5.424,2.712,5.864,5.937l.147,1.393h-.073v6.89h.073l-.147,1.393c-.366,3.225-2.345,5.2-5.864,5.937l-1.319.073,7.33,16.418H407.67Zm-1.686-21.622.806-.147a2.052,2.052,0,0,0,1.173-1.173l.147-.806V77.5l-.147-.733A1.862,1.862,0,0,0,406.79,75.6l-.806-.073v-.073H393.377V86.591Z" transform="translate(-103.644 -18.72)" fill="#fff" opacity="0.81"/>
  <path id="Tracciato_17" data-name="Tracciato 17" d="M451.609,108.14V86.225l-7.4,21.549-7.4-21.549V108.14h-5.2V70.1h5.2l7.4,21.475,7.4-21.475h5.351v38.04Z" transform="translate(-115.26 -18.72)" fill="#fff" opacity="0.81"/>
  <path id="Tracciato_18" data-name="Tracciato 18" d="M482.676,108.113l-1.466-.147a6.437,6.437,0,0,1-3.811-1.979,7.289,7.289,0,0,1-2.126-3.885l-.073-1.466.073-24.627a7.565,7.565,0,0,1,2.126-3.885,6.436,6.436,0,0,1,3.811-1.979L482.676,70v.073h10.408V70l1.466.147a6.437,6.437,0,0,1,3.811,1.979,7.288,7.288,0,0,1,2.125,3.885l.073,1.466-.073,24.627a7.084,7.084,0,0,1-2.125,3.811,6.437,6.437,0,0,1-3.811,1.979l-1.466.147v-.073H482.749v.147Zm10.408-5.35.879-.147a2.156,2.156,0,0,0,1.173-1.1l.073-.88h.147V77.476h-.073l-.073-.733a1.863,1.863,0,0,0-1.173-1.173l-.88-.147H482.749l-.879.147a2.288,2.288,0,0,0-1.173,1.173l-.073.733h-.073v23.161h.073l.073.88a1.928,1.928,0,0,0,1.173,1.1l.879.147Z" transform="translate(-126.904 -18.694)" fill="#fff" opacity="0.81"/>
  <path id="Tracciato_19" data-name="Tracciato 19" d="M518.5,108.14V70.1l19.276.073a7.566,7.566,0,0,1,3.885,2.126,6.437,6.437,0,0,1,1.979,3.811l.146,1.466h-.073v6.743h.073l-.146,1.393a6.437,6.437,0,0,1-1.979,3.811,7.29,7.29,0,0,1-3.885,2.126l-1.319.073V91.8H523.631V108.14Zm17.81-21.622.806-.147A1.591,1.591,0,0,0,538.29,85.2l.146-.806V77.649l-.146-.88a1.863,1.863,0,0,0-1.173-1.173l-.806-.073v-.073H523.7V86.591H536.31Z" transform="translate(-138.467 -18.72)" fill="#fff" opacity="0.81"/>
  <path id="Tracciato_20" data-name="Tracciato 20" d="M566.849,108.113l-1.466-.147c-3.225-.366-5.2-2.345-5.937-5.864l-.073-1.466V99.1h5.2v1.539h.073l.073.88a1.929,1.929,0,0,0,1.172,1.1l.88.147h10.408l.879-.147a2.157,2.157,0,0,0,1.173-1.1l.073-.88h.073V93.894h-.073l-.073-.806a2.29,2.29,0,0,0-1.173-1.173l-.879-.147V91.7l-11.874-.073a7.511,7.511,0,0,1-5.937-5.937l-.073-1.393V77.549l.073-1.466A7.568,7.568,0,0,1,561.5,72.2a6.436,6.436,0,0,1,3.811-1.979l1.466-.147v.073h10.408V70l1.466.147a6.436,6.436,0,0,1,3.811,1.979,7.29,7.29,0,0,1,2.126,3.885l.073,1.466V78.8h-5.277V77.476h-.073l-.073-.733a1.863,1.863,0,0,0-1.173-1.173l-.879-.147H566.776l-.88.147a1.863,1.863,0,0,0-1.173,1.173l-.073.733h-.073v6.743h.073l.073.806A1.863,1.863,0,0,0,565.9,86.2l.88.147H577.4l1.32.147a6.436,6.436,0,0,1,3.811,1.979,7.288,7.288,0,0,1,2.125,3.885l.073,1.466v6.743l-.073,1.466c-.733,3.518-2.712,5.424-5.936,5.864l-1.466.147Z" transform="translate(-149.363 -18.694)" fill="#fff" opacity="0.81"/>
  <path id="Tracciato_80" data-name="Tracciato 80" d="M1.137,0H6.257L4.481,14.384H-.64Z" transform="translate(37.745 69.742)" fill="#fff" opacity="0.5"/>
</svg>
