<svg id="notification" xmlns="http://www.w3.org/2000/svg" width="21.246" height="26.806" viewBox="0 0 21.246 26.806">
  <path id="Tracciato_27" data-name="Tracciato 27" d="M184.9,465.044a4.049,4.049,0,0,0,7.413,0Z" transform="translate(-177.987 -440.656)" fill="#323b40"/>
  <path id="Tracciato_28" data-name="Tracciato 28" d="M199.387,2.561a9.108,9.108,0,0,1,3.11.545v-.12A2.99,2.99,0,0,0,199.511,0h-.247a2.99,2.99,0,0,0-2.986,2.986V3.1A9.126,9.126,0,0,1,199.387,2.561Z" transform="translate(-188.764 0)" fill="#323b40"/>
  <path id="Tracciato_29" data-name="Tracciato 29" d="M73.452,97.516H53.821a.8.8,0,0,1-.789-.614.763.763,0,0,1,.42-.868,4.165,4.165,0,0,0,1.268-1.723,19.913,19.913,0,0,0,1.322-7.88,7.595,7.595,0,0,1,15.189-.03c0,.01,0,.02,0,.03a19.912,19.912,0,0,0,1.322,7.88,4.164,4.164,0,0,0,1.268,1.723.763.763,0,0,1,.42.868A.8.8,0,0,1,73.452,97.516Zm.378-1.477h0Z" transform="translate(-53.013 -74.702)" fill="#323b40"/>
</svg>
