<svg xmlns="http://www.w3.org/2000/svg" width="22" height="22" viewBox="0 0 22 22">
  <g id="Layer_2" data-name="Layer 2" transform="translate(0 0)">
    <g id="invisible_box" data-name="invisible box">
      <rect id="Rettangolo_6" data-name="Rettangolo 6" width="22" height="22" transform="translate(0 0)" fill="none"/>
    </g>
    <g id="icons_Q2" data-name="icons Q2" transform="translate(0.898 0.898)">
      <g id="Raggruppa_2" data-name="Raggruppa 2">
        <path id="Tracciato_30" data-name="Tracciato 30" d="M22.142,15.322V12.9a.9.9,0,0,0-1.8,0v2.424A2.289,2.289,0,0,0,19,17.387a2.245,2.245,0,1,0,4.489,0A2.289,2.289,0,0,0,22.142,15.322Z" transform="translate(-11.368 -7.511)" fill="#11b2e2"/>
        <path id="Tracciato_31" data-name="Tracciato 31" d="M11.876,2A9.921,9.921,0,0,0,2,11.876a9.7,9.7,0,0,0,2.828,6.913.853.853,0,0,0,1.257,0h0l1.347-1.347a.9.9,0,0,0-1.257-1.257l-.673.673A8.619,8.619,0,0,1,3.84,12.774h.853a.9.9,0,1,0,0-1.8H3.84a8.3,8.3,0,0,1,1.706-4.13h0l.628.584A.889.889,0,1,0,7.432,6.175l-.584-.628h0a8.3,8.3,0,0,1,4.13-1.706h0v.853a.9.9,0,0,0,1.8,0V3.841h0A8.3,8.3,0,0,1,16.9,5.546h0l-.584.628a.889.889,0,1,0,1.257,1.257l.628-.584h0a8.3,8.3,0,0,1,1.706,4.13h-.853a.9.9,0,1,0,0,1.8h.853a8.619,8.619,0,0,1-1.661,4.085l-.673-.673a.9.9,0,1,0-1.257,1.257l1.392,1.392a.9.9,0,0,0,1.212-.045,9.7,9.7,0,0,0,2.828-6.913A9.921,9.921,0,0,0,11.876,2Z" transform="translate(-1.999 -2)" fill="#11b2e2"/>
      </g>
    </g>
  </g>
</svg>
