<svg id="Page-1" xmlns="http://www.w3.org/2000/svg" width="22" height="22" viewBox="0 0 22 22">
  <g id="Dribbble-Light-Preview">
    <g id="icons">
      <path id="target-_82_" data-name="target-[#82]" d="M256.1,7690a1.1,1.1,0,1,1-1.1-1.1,1.1,1.1,0,0,1,1.1,1.1m4.4,1.1h1a6.6,6.6,0,0,1-5.4,5.4v-1a1.1,1.1,0,1,0-2.2,0v1a6.6,6.6,0,0,1-5.4-5.4h1a1.1,1.1,0,0,0,0-2.2h-1a6.6,6.6,0,0,1,5.4-5.4v1a1.1,1.1,0,0,0,2.2,0v-1a6.6,6.6,0,0,1,5.4,5.4h-1a1.1,1.1,0,0,0,0,2.2m4.4-2.2h-1.176a8.788,8.788,0,0,0-7.624-7.623V7680.1a1.1,1.1,0,0,0-2.2,0v1.177a8.788,8.788,0,0,0-7.624,7.623H245.1a1.1,1.1,0,0,0,0,2.2h1.176a8.787,8.787,0,0,0,7.624,7.623v1.177a1.1,1.1,0,1,0,2.2,0v-1.177a8.787,8.787,0,0,0,7.624-7.623H264.9a1.1,1.1,0,0,0,0-2.2" transform="translate(-244 -7679)" fill="#11b2e2" fill-rule="evenodd"/>
    </g>
  </g>
</svg>
