<svg xmlns="http://www.w3.org/2000/svg" width="20.003" height="20.093" viewBox="0 0 20.003 20.093">
  <g id="key-svgrepo-com" transform="translate(-0.997 -1)">
    <path id="Tracciato_56" data-name="Tracciato 56" d="M14.313,13.328A5.664,5.664,0,1,0,8.625,7.664a5.137,5.137,0,0,0,.661,2.5l-6.878,6.85a1.254,1.254,0,0,0,0,1.844l.794.79a1.252,1.252,0,0,0,1.719,0l.926-.922A1.5,1.5,0,1,0,8.1,16.753l.265-.263a1.723,1.723,0,0,0,2.778,0,1.634,1.634,0,0,0,0-1.844c-.265-.527-.794-.527-.132-1.185l.794-.79A4.633,4.633,0,0,0,14.313,13.328Z" fill="none" stroke="#11b2e2" stroke-linejoin="round" stroke-width="2"/>
    <path id="Tracciato_57" data-name="Tracciato 57" d="M17.444,8.074A1.984,1.984,0,1,1,15.461,6.1,1.98,1.98,0,0,1,17.444,8.074Z" transform="translate(-1.148 -0.41)" fill="none" stroke="#11b2e2" stroke-width="2"/>
  </g>
</svg>
