<svg xmlns="http://www.w3.org/2000/svg" width="18.904" height="23.733" viewBox="0 0 18.904 23.733">
  <path id="clipboard-list-svgrepo-com" d="M8.622,5.415a5.319,5.319,0,0,0-2.3.263A2.415,2.415,0,0,0,5.263,6.733,6,6,0,0,0,5,9.278V20.869a6,6,0,0,0,.263,2.545A2.414,2.414,0,0,0,6.318,24.47a6,6,0,0,0,2.545.263H18.04a6,6,0,0,0,2.545-.263,2.414,2.414,0,0,0,1.055-1.055,6,6,0,0,0,.263-2.545V9.278a6,6,0,0,0-.263-2.545,2.414,2.414,0,0,0-1.055-1.055,5.319,5.319,0,0,0-2.3-.263m-9.659,0V7.83h9.659V5.415m-9.659,0V5.061A2.061,2.061,0,0,1,10.683,3H16.22a2.061,2.061,0,0,1,2.061,2.061v.354m0,7.244H15.867M18.281,18.7H15.867M8.622,12.659,9.83,13.867l2.415-2.415M8.622,18.7,9.83,19.9l2.415-2.415" transform="translate(-4 -2)" fill="none" stroke="#11b2e2" stroke-linecap="round" stroke-linejoin="round" stroke-width="2"/>
</svg>
