<svg xmlns="http://www.w3.org/2000/svg" width="22" height="16.156" viewBox="0 0 22 16.156">
  <path id="users-three-bold-svgrepo-com" d="M14.119,51.786a4.469,4.469,0,1,0-6.245,0,6.513,6.513,0,0,0-2.752,2.887,1.031,1.031,0,1,0,1.854.9,4.471,4.471,0,0,1,8.04,0,1.031,1.031,0,1,0,1.854-.9,6.513,6.513,0,0,0-2.752-2.887ZM8.59,48.593A2.406,2.406,0,1,1,11,51,2.406,2.406,0,0,1,8.59,48.593Zm12.994.824a1.031,1.031,0,0,1-1.444-.205A4.1,4.1,0,0,0,17.426,47.6a1.105,1.105,0,0,1-.156-2.158,1.719,1.719,0,1,0-1.983-2.4,1.031,1.031,0,0,1-1.861-.889,3.782,3.782,0,1,1,6.309,4.061,6.183,6.183,0,0,1,2.054,1.759,1.031,1.031,0,0,1-.205,1.444ZM4.567,47.6a4.1,4.1,0,0,0-2.714,1.609A1.031,1.031,0,1,1,.2,47.974a6.184,6.184,0,0,1,2.054-1.759,3.782,3.782,0,1,1,6.309-4.061,1.031,1.031,0,0,1-1.861.889,1.719,1.719,0,1,0-1.983,2.4,1.025,1.025,0,0,1,.7,1.378A1.031,1.031,0,0,1,4.567,47.6Z" transform="translate(0.004 -39.999)" fill="#11b2e2"/>
</svg>
