<svg id="Layer_2" data-name="Layer 2" xmlns="http://www.w3.org/2000/svg" width="22.192" height="22.192" viewBox="0 0 22.192 22.192">
  <g id="invisible_box" data-name="invisible box">
    <rect id="Rettangolo_19" data-name="Rettangolo 19" width="22.192" height="22.192" fill="none"/>
  </g>
  <g id="icons_Q2" data-name="icons Q2" transform="translate(0.925 1.849)">
    <path id="Tracciato_62" data-name="Tracciato 62" d="M21.418,16.945h-.925v-3.7a.925.925,0,0,0-.925-.925H13.1V11.4h0V9.548h.925a.925.925,0,0,0,.925-.925v-3.7A.925.925,0,0,0,14.02,4h-3.7a.925.925,0,0,0-.925.925v3.7a.925.925,0,0,0,.925.925h.925v2.774H4.774a.925.925,0,0,0-.925.925v3.7H2.925A.925.925,0,0,0,2,17.87v3.7a.925.925,0,0,0,.925.925h3.7a.925.925,0,0,0,.925-.925v-3.7a.925.925,0,0,0-.925-.925H5.7V14.171h5.548v2.774h-.925a.925.925,0,0,0-.925.925v3.7a.925.925,0,0,0,.925.925h3.7a.925.925,0,0,0,.925-.925v-3.7a.925.925,0,0,0-.925-.925H13.1V14.171h5.548v2.774h-.925a.925.925,0,0,0-.925.925v3.7a.925.925,0,0,0,.925.925h3.7a.925.925,0,0,0,.925-.925v-3.7A.925.925,0,0,0,21.418,16.945ZM5.7,20.644H3.849V18.794H5.7ZM11.246,5.849H13.1V7.7H11.246ZM13.1,20.644H11.246V18.794H13.1Zm7.4,0H18.644V18.794h1.849Z" transform="translate(-2 -4)" fill="#11b2e2"/>
  </g>
</svg>
