<svg xmlns="http://www.w3.org/2000/svg" width="20.255" height="17.651" viewBox="0 0 20.255 17.651">
  <g id="heart-rate-svgrepo-com" transform="translate(-0.745 -2)">
    <path id="Tracciato_78" data-name="Tracciato 78" d="M3.135,5.487a5.607,5.607,0,0,0-.452,4.14,6.269,6.269,0,0,0,1.19,2.1A23.479,23.479,0,0,0,6.164,14.2,53.159,53.159,0,0,0,10.548,17.9c.495-.374,1.3-.995,2.207-1.757a.879.879,0,0,1,.564-.206H13.4a.833.833,0,0,1,.555,1.472c-.99.832-1.859,1.5-2.379,1.9a1.7,1.7,0,0,1-2.057,0,54.939,54.939,0,0,1-4.557-3.839A25.191,25.191,0,0,1,2.5,12.8,7.9,7.9,0,0,1,.993,10.05,7.34,7.34,0,0,1,1.63,4.61,5.132,5.132,0,0,1,6.193,2a4.9,4.9,0,0,1,4.263,3.094q.047.095.092.189.045-.094.092-.189A4.9,4.9,0,0,1,14.9,2a5.132,5.132,0,0,1,4.563,2.61,7.14,7.14,0,0,1,.8,4.583.768.768,0,0,1-.774.646.979.979,0,0,1-.9-1.117,5.393,5.393,0,0,0-.634-3.234A3.392,3.392,0,0,0,14.9,3.742c-1.228,0-2.093.908-2.7,2.132a9.3,9.3,0,0,0-.62,1.64c-.063.226-.106.413-.134.541-.1.455-.622.478-.9.478s-.8-.027-.9-.478c-.028-.128-.071-.315-.134-.541a9.3,9.3,0,0,0-.62-1.64c-.612-1.224-1.477-2.132-2.7-2.132A3.392,3.392,0,0,0,3.135,5.487Z" fill="#11b2e2"/>
    <path id="Tracciato_79" data-name="Tracciato 79" d="M14.9,9.528a.871.871,0,0,0-1.58-.046l-1.5,3H8.871a.871.871,0,1,0,0,1.742h3.484a.871.871,0,0,0,.779-.481l.9-1.8,1.873,4.371a.871.871,0,0,0,1.5.18l2.352-3.136h1.306a.871.871,0,1,0,0-1.742H19.323a.871.871,0,0,0-.7.348L16.917,14.24Z" transform="translate(-0.936 -0.903)" fill="#11b2e2"/>
  </g>
</svg>
