<svg id="Layer_2" data-name="Layer 2" xmlns="http://www.w3.org/2000/svg" width="22" height="22" viewBox="0 0 22 22">
  <g id="invisible_box" data-name="invisible box">
    <rect id="Rettangolo_20" data-name="Rettangolo 20" width="22" height="22" fill="none"/>
  </g>
  <g id="Layer_6" data-name="Layer 6" transform="translate(0.917 0.917)">
    <path id="Tracciato_63" data-name="Tracciato 63" d="M17.583,9.975V5.85L12.083,2l-5.5,3.85V9.975L2,13.183v5.133l5.5,3.85,4.583-3.254,4.583,3.254,5.5-3.9V13.183Zm-6.417,7.333L7.5,19.921,3.833,17.354V14.146l3.621-2.567,3.713,2.613ZM8.417,9.975V6.813l3.667-2.567L15.75,6.813V9.975l-3.667,2.567Zm11.917,7.333-3.667,2.613L13,17.354V14.192l3.667-2.612,3.667,2.567Z" transform="translate(-2 -2)" fill="#11b2e2"/>
  </g>
</svg>
